<svg width="200" height="201" viewBox="0 0 200 201" fill="none" xmlns="http://www.w3.org/2000/svg">
<ellipse cx="100.5" cy="101" rx="89.5" ry="90" fill="#242424"/>
<path d="M46.8901 56.2001C44.64 52.2894 42.2592 48.7402 38.6823 45.8671C36.506 44.1194 34.1779 42.5717 32.0565 40.7495C27.7934 37.0879 23.3805 31.551 23.0165 25.7754C22.8895 23.761 23.4957 19.7564 24.861 18.2407C25.4439 18.6482 26.1743 25.0276 26.5024 26.2338C26.994 28.042 27.7906 29.7049 28.7486 31.3178C30.8685 34.8871 35.7996 40.5999 40.0873 41.5996C40.7766 41.7602 41.5383 41.7945 42.1525 41.3933C44.2886 39.9992 42.8883 33.0609 42.8271 30.7174C42.7629 28.254 42.7897 25.5872 43.3478 23.1851C44.843 16.7488 50.7028 9.28627 55.6608 4.89613C57.2993 3.44562 59.1185 2.15997 60.9799 1C60.2107 3.73795 57.7369 6.04962 55.9923 8.26008C55.0764 9.43301 54.207 10.6383 53.3842 11.8761C51.432 14.7705 48.6363 19.6513 47.6639 22.8716C46.0454 28.2332 46.7084 36.3021 47.8272 41.6995C48.7368 45.7727 50.5801 51.0917 52.6778 54.7288C54.1755 57.8289 58.2026 64.7339 61.4774 65.9895C62.0477 66.2083 62.653 66.219 63.2064 65.9456C64.112 65.4985 64.7067 64.4237 64.9682 63.5028C66.1348 59.3931 64.23 55.117 63.3622 51.1554C66.5405 55.9518 67.575 58.5531 67.8856 64.3048C67.9727 65.9132 67.9474 67.5751 68.5876 69.0875C68.9619 69.9719 69.4817 70.6762 70.2452 71.2671C74.3868 74.4714 84.9879 78.1082 90.131 79.7738C91.4021 80.1854 92.7525 80.7515 94.0651 80.9945C94.2858 81.0352 94.4728 81.0352 94.6941 81.0135C94.9582 80.6362 94.8002 80.1079 94.7216 79.6884C94.3651 77.7861 94.0096 75.8496 94.0689 73.9081C94.1391 71.6152 94.7672 69.4095 95.1655 67.1622C95.6053 64.6783 95.7414 62.1877 95.7267 59.6704C98.0173 62.3268 98.2795 65.2498 97.9964 68.6044C97.8768 70.0227 97.6748 71.4435 97.6758 72.8686C97.6777 76.3743 98.782 80.3601 101.11 83.0739C102.066 84.1882 103.123 85.2182 104.071 86.3392C105.047 87.494 105.915 88.7913 106.99 89.8571C110.836 89.5298 114.651 89.9865 118.371 90.9641C118.442 90.1259 118.487 89.2659 118.708 88.4501C119.505 85.509 121.978 82.6239 124.306 80.7018C126.304 79.0515 128.8 78.053 130.71 76.3555C131.178 75.9426 131.587 75.4792 131.938 74.9654C132.758 73.7751 133.389 72.3917 134.091 71.126C135.008 69.4732 136.019 67.9137 136.731 66.1564C137.198 65.0044 137.559 63.7957 137.668 62.5564C137.905 59.8837 136.879 57.3723 136.625 54.7486C139.008 58.1976 140.539 62.0088 139.703 66.2128C139.406 67.7062 138.088 70.9697 138.381 72.2777C138.612 72.4843 138.65 72.521 138.985 72.5042C139.436 72.4815 139.995 72.1821 140.403 71.9936C143.152 70.723 145.26 68.7304 147.015 66.3197C149.083 63.4782 151.406 58.8457 151.577 55.3027C152.903 47.8164 150.555 45.3769 146.131 39.7794C144.899 38.2213 143.778 36.5259 142.772 34.8184C141.824 33.2088 139.994 30.1052 140.588 28.1984C140.669 27.9383 140.71 27.9284 140.942 27.812C141.47 27.9686 141.802 28.4034 142.112 28.8294C142.915 29.9308 143.487 31.2257 144.202 32.3906C145.834 35.0509 148.597 38.7669 151.117 40.5719C151.64 40.9467 152.273 41.2614 152.938 41.13C153.492 41.0203 153.926 40.5925 154.217 40.1386C157.226 35.4558 155.109 26.4228 153.928 21.261C153.587 20.1005 151.152 12.6368 151.402 12.03C152.731 12.6178 155.21 18.1164 155.818 19.7217C159.26 28.8078 159.655 34.8132 158.095 44.3007C157.844 45.8312 157.485 47.3436 157.144 48.8563C157.008 49.4567 156.752 50.1741 156.736 50.784C155.991 52.9375 153.272 61.7385 154.121 63.5801C154.305 63.9803 154.609 64.2384 155.036 64.3662C156.012 64.6582 157.659 63.7582 158.467 63.2228C159.627 62.4538 160.752 61.2967 161.443 60.1042C166.061 54.7162 162.255 42.3492 163.444 40.8816C163.554 40.8764 163.622 40.8647 163.736 40.9034C164.076 41.0183 164.419 41.3811 164.665 41.6241C167.888 44.8098 165.805 52.6596 167.671 55.2372C167.954 55.3724 168.015 55.4233 168.334 55.3255C169.622 54.9308 171.647 51.5394 172.281 50.4377C175.836 44.2511 175.399 40.1482 173.502 33.5399C175.614 34.9125 177.003 37.0453 177.6 39.4443C178.812 44.3173 177.12 48.9113 174.547 53.0328C171.237 57.5081 166.757 62.4802 162.335 65.8853C158.057 69.1173 154.762 69.9343 150.17 72.1004C146.78 73.6998 143.508 75.6907 140.222 77.4951C135.699 79.9793 130.32 82.1678 126.597 85.7795C125.047 87.283 123.902 89.0372 123.613 91.1904C123.566 91.5398 123.518 91.8674 123.689 92.1901C123.983 92.2851 124.105 92.2492 124.379 92.1006C126.089 91.1723 128.21 87.9348 130.467 86.47C133.656 84.4001 137.896 84.2772 141.468 83.1363C142.66 82.7553 143.819 82.2168 144.819 81.4663C145.313 81.0958 145.785 80.6223 146.318 80.3124C146.593 80.1522 146.839 80.1267 147.152 80.1252C147.548 80.2665 147.74 80.4486 147.921 80.8132C148.574 82.1304 148.376 83.8822 147.838 85.2153C147.245 86.6861 146.195 87.9462 145.521 89.3746C143.575 93.5002 143.763 96.8955 138.814 98.8652C137.24 99.4919 131.798 100.319 131.056 101.187C130.79 102.918 133.915 107.323 135.057 108.845C135.457 109.377 135.891 109.953 136.423 110.364C137.881 111.491 142.253 113.99 143.974 114.551C145.339 114.996 147.59 114.923 148.664 115.864C149.247 116.375 149.209 117.322 149.105 118.011C148.986 118.794 148.777 119.59 148.52 120.339C147.442 123.554 145.691 126.385 142.505 127.941C140.49 128.925 138.362 129.14 136.21 128.45C135.019 128.068 133.925 127.65 132.645 127.657C129.158 127.675 125.291 128.936 122.014 130.099L122.116 130.237C121.371 130.666 120.076 130.793 119.219 130.99L119.169 131.288C120.014 131.405 121.111 130.954 121.986 130.897L122.08 131.033C122.965 130.9 123.828 130.647 124.712 130.536C123.508 137.526 123.485 144.818 125.678 151.613C127.067 155.916 128.488 158.854 128.737 163.529C128.896 173.521 125.963 189.946 118.705 197.363C116.142 199.982 113.23 200.947 109.572 200.998C106.082 201.046 102.623 200.33 99.2082 199.694C84.7043 196.992 70.9426 192.065 58.5035 184.171C56.4027 182.838 54.2232 181.545 52.4346 179.809C49.2181 176.69 49.6336 175.063 48.4187 171.168C48.1418 170.08 48.1577 168.883 47.7541 167.841C47.4694 167.106 46.9425 166.416 46.5217 165.745C46.3032 165.403 46.1016 165.051 45.9171 164.69C45.7323 164.329 45.5653 163.96 45.4164 163.584C45.2673 163.207 45.1368 162.825 45.0246 162.436C44.9127 162.047 44.8196 161.654 44.7453 161.257C44.1463 158.218 44.5287 154.654 46.3317 152.047C47.2444 150.727 48.5224 149.656 50.168 149.378C50.7312 149.283 51.5681 149.247 52.0332 149.631C52.8922 150.341 51.0259 153.139 50.6897 154.005C50.365 154.839 50.1584 155.743 50.1999 156.64C50.2561 157.855 50.7552 158.783 51.6796 159.573L51.7998 159.673C51.9198 159.444 52.0438 159.217 52.1715 158.993C54.7112 154.549 61.1238 154.452 65.6136 153.835C68.0106 153.506 70.431 153.079 72.7606 152.432C80.0233 150.416 84.3366 145.932 86.2826 138.767C87.1885 135.433 87.6236 131.988 88.4489 128.633C89.5905 123.991 91.2477 119.777 93.6264 115.611C94.8812 113.613 96.2157 111.827 97.7774 110.054C96.5847 108.272 95.4528 106.33 94.0428 104.707C90.3949 105.579 87.0605 105.112 83.7514 103.369C78.8493 100.787 74.9402 94.8542 73.3637 89.6881C72.9417 88.306 72.1082 84.6388 72.8699 83.3621C73.2373 82.7461 73.9128 82.3609 74.6017 82.1871C75.5716 81.9429 76.6757 82.112 77.6081 82.4335C80.0002 83.2588 82.1912 84.9769 84.4986 86.059C87.3442 87.3936 90.3708 88.1282 93.0713 89.7935C94.9115 90.9287 96.49 92.8008 98.2475 93.7919C99.4936 94.495 100.487 94.4374 101.805 94.0632C100.688 91.5713 98.3009 89.2692 95.9326 87.8953C93.6104 86.5481 91.0189 85.9725 88.5154 85.058C83.1429 83.0955 77.6792 81.1454 72.4301 78.8828C69.3909 77.5729 66.3774 76.2395 63.5009 74.6072C61.0632 73.2242 58.3616 71.04 55.7504 70.14C53.5706 69.3888 51.0431 69.8185 48.7697 69.7115C42.0102 69.3943 34.5135 66.3189 29.5961 61.745C27.0799 59.361 24.8339 56.4505 23.7969 53.1321C23.4557 52.0399 22.8898 49.2499 23.4205 48.2726L23.6068 48.275C24.7424 51.9952 27.2269 55.6197 29.9754 58.3886C31.0118 56.86 31.4691 55.0154 32.5001 53.4708C32.3497 55.4322 31.8037 57.3381 31.6046 59.2799C31.5624 59.6915 31.637 59.765 31.9055 60.081C35.1794 63.1082 39.5665 65.0867 43.8929 66.1514C45.5551 66.5605 49.1081 67.2871 50.638 66.3242C51.0503 66.0646 51.3095 65.68 51.4118 65.2109C51.9239 62.8667 48.1802 58.1606 46.8901 56.2001Z" fill="white"/>
</svg>
