<?xml version="1.0" encoding="utf-8"?>
<svg viewBox="0 0 23 23" xmlns="http://www.w3.org/2000/svg" xmlns:xlink="http://www.w3.org/1999/xlink">
  <style>
    :root>svg {
      display: none
    }

    :root>svg:target {
      display: block
    }
  </style>

  <symbol id="logo" width="169" height="44" viewBox="0 0 169 44" fill="none" xmlns="http://www.w3.org/2000/svg">
    <path fill-rule="evenodd" clip-rule="evenodd" d="M22.0506 40.5486C11.8001 40.5486 3.45762 32.2268 3.45762 21.9985C3.45762 11.7687 11.8001 3.45145 22.0521 3.45145C32.304 3.45145 40.645 11.7687 40.645 21.9985C40.645 32.2268 32.304 40.5486 22.0521 40.5486H22.0506ZM3.45762 40.5486V33.8206C5.18776 36.5227 7.48938 38.8185 10.2027 40.5486H3.45762ZM3.45762 3.45145H10.2027C7.4882 5.18005 5.18629 7.47612 3.45762 10.1794V3.45145ZM22.0521 0H0V44H22.0506C34.2299 44 44.1011 34.1497 44.1011 21.9985C44.1026 9.85026 34.2314 0 22.0521 0ZM63.7929 16.7413C65.023 16.7413 66.1054 16.507 67.0385 16.0356C67.9418 15.5964 68.6921 14.8988 69.1928 14.0326C69.6944 13.1623 69.9452 12.1572 69.9452 11.0111C69.9452 9.86509 69.6944 8.85693 69.1928 7.98814C68.6905 7.12279 67.9407 6.42513 67.0385 5.98369C66.1054 5.51668 65.023 5.27947 63.7944 5.27947H59.7246V16.7398H63.7944L63.7929 16.7413ZM56.6134 2.65085H63.9377C65.7247 2.65085 67.3117 2.99778 68.7001 3.69162C70.0885 4.38399 71.1649 5.36249 71.9308 6.62713C72.6967 7.89325 73.0804 9.35508 73.0804 11.0111C73.0804 12.6657 72.6967 14.1275 71.9308 15.3936C71.1649 16.6583 70.0885 17.6383 68.7001 18.3291C67.3117 19.023 65.7247 19.3669 63.9377 19.3669H56.6119V2.65234L56.6134 2.65085ZM76.0976 19.3699H79.0894V6.61675H76.0976V19.3699ZM76.2409 4.00148C76.0631 3.83954 75.9221 3.64177 75.8273 3.42138C75.7326 3.201 75.6863 2.96307 75.6915 2.7235C75.6915 2.21349 75.8751 1.78947 76.2409 1.447C76.6082 1.10452 77.062 0.932543 77.6054 0.932543C78.1489 0.932543 78.6027 1.09414 78.97 1.42179C79.3372 1.74796 79.5209 2.16012 79.5209 2.65234C79.5209 3.17865 79.3417 3.61898 78.9834 3.97776C78.6251 4.33655 78.1638 4.51594 77.6054 4.51594C77.0635 4.51594 76.6082 4.34396 76.2409 4.00148ZM91.6688 15.2483C92.3944 14.5723 92.7587 13.6946 92.7587 12.6093C92.7587 11.5448 92.3944 10.6746 91.6688 10.0059C90.9418 9.33877 90.0117 9.00371 88.8786 9.00371C87.732 9.00371 86.7944 9.33729 86.0674 10.0059C85.3418 10.6746 84.9775 11.5448 84.9775 12.6093C84.9775 13.6946 85.3418 14.5723 86.0674 15.2483C86.7944 15.9274 87.732 16.2654 88.8786 16.2654C90.0117 16.2654 90.9418 15.9274 91.6688 15.2483ZM95.7027 6.61527V17.4351C95.7027 21.9274 93.4036 24.169 88.8099 24.169C87.6278 24.1757 86.4505 24.019 85.312 23.7035C84.2117 23.3921 83.3025 22.9429 82.5844 22.3558L83.925 20.1097C84.4834 20.5708 85.188 20.9429 86.045 21.2216C86.8974 21.4974 87.7618 21.6368 88.6427 21.6368C90.043 21.6368 91.0732 21.3195 91.73 20.682C92.384 20.0445 92.7109 19.0749 92.7109 17.7672V17.1001C92.1973 17.6575 91.5763 18.0786 90.8447 18.3662C90.0729 18.6592 89.2524 18.8051 88.4262 18.7961C87.211 18.7961 86.1151 18.5367 85.1343 18.0208C84.1709 17.5197 83.3663 16.7633 82.8098 15.8354C82.2425 14.894 81.9618 13.8221 81.9618 12.6093C81.9618 11.4025 82.244 10.3306 82.8098 9.39956C83.3786 8.46701 84.1534 7.74944 85.1343 7.23647C86.1151 6.72795 87.211 6.47294 88.4262 6.47294C89.2887 6.46191 90.1454 6.61593 90.9492 6.92661C91.7077 7.23202 92.3407 7.69014 92.8542 8.31134V6.61527H95.7027ZM99.6276 19.3699H102.619V6.61675H99.6276V19.3699ZM99.771 4.00148C99.5928 3.83967 99.4516 3.64196 99.3566 3.42157C99.2616 3.20118 99.215 2.96318 99.2201 2.7235C99.2201 2.21349 99.4037 1.78947 99.771 1.447C100.138 1.10452 100.592 0.932543 101.135 0.932543C101.677 0.932543 102.133 1.09414 102.499 1.42179C102.866 1.74796 103.051 2.16012 103.051 2.65234C103.051 3.17865 102.872 3.61898 102.513 3.97776C102.154 4.33655 101.692 4.51594 101.135 4.51594C100.592 4.51594 100.138 4.34396 99.771 4.00148ZM114.228 18.6761C113.878 18.9637 113.452 19.1786 112.946 19.321C112.429 19.4663 111.894 19.5387 111.356 19.536C109.953 19.536 108.867 19.1727 108.102 18.4388C107.336 17.705 106.952 16.639 106.952 15.2365V9.10007H104.847V6.71164H106.952V3.80133H109.944V6.71164H113.367V9.10156H109.944V15.1653C109.944 15.788 110.096 16.2624 110.399 16.5886C110.702 16.9148 111.141 17.0749 111.714 17.0749C112.386 17.0749 112.943 16.9014 113.391 16.5515L114.227 18.6761H114.228ZM123.168 16.8495C123.75 16.5085 124.164 16.0193 124.403 15.3803V13.8992H121.312C119.593 13.8992 118.728 14.4655 118.728 15.5953C118.728 16.1364 118.943 16.5693 119.375 16.8866C119.805 17.2053 120.403 17.361 121.172 17.361C121.922 17.361 122.586 17.192 123.168 16.8495ZM125.897 7.82506C126.895 8.7235 127.395 10.0771 127.395 11.8947V19.3669H124.57V17.8162C124.186 18.3862 123.64 18.8308 123.002 19.0941C122.323 19.3892 121.507 19.5389 120.547 19.5389C119.591 19.5389 118.752 19.3729 118.034 19.0467C117.316 18.7205 116.762 18.2669 116.372 17.6857C115.98 17.1027 115.775 16.4151 115.784 15.7139C115.784 14.5678 116.213 13.6501 117.065 12.9577C117.919 12.2624 119.263 11.9185 121.096 11.9185H124.403V11.7257C124.403 10.8332 124.134 10.1512 123.6 9.67383C123.065 9.19644 122.272 8.95478 121.22 8.95478C120.502 8.95478 119.794 9.06598 119.1 9.29133C118.406 9.51371 117.819 9.82506 117.338 10.2224L116.166 8.05041C116.838 7.53744 117.643 7.15048 118.585 6.87769C119.559 6.60485 120.566 6.4691 121.578 6.47443C123.459 6.47443 124.9 6.92216 125.897 7.82357V7.82506ZM131.223 19.3684H134.214V1.64863H131.223V19.3684ZM141.176 14.1097H149.188V11.3521H141.176V14.1097ZM64.7991 37.7761C65.5157 37.0437 65.8755 36.0786 65.8755 34.8851C65.8755 33.6901 65.5172 32.7279 64.7991 31.9941C64.081 31.2632 63.1718 30.897 62.07 30.897C60.9697 30.897 60.062 31.2632 59.3529 31.9941C58.6423 32.7279 58.2884 33.6901 58.2884 34.8851C58.2884 36.0786 58.6423 37.0437 59.3529 37.7761C60.062 38.5056 60.9697 38.8747 62.07 38.8747C63.1718 38.8747 64.081 38.5056 64.7991 37.7776V37.7761ZM58.5766 40.5945C57.5619 40.06 56.7195 39.2522 56.1461 38.2639C55.5638 37.2706 55.2712 36.1423 55.2712 34.8836C55.2712 33.6294 55.5638 32.5041 56.1461 31.5211C56.7232 30.5387 57.565 29.7357 58.5766 29.2024C59.6127 28.6449 60.7786 28.3662 62.07 28.3662C63.3793 28.3662 64.5513 28.6449 65.5889 29.2024C66.6005 29.7357 67.4422 30.5387 68.0193 31.5211C68.6016 32.5041 68.8912 33.6294 68.8912 34.8851C68.8912 36.1423 68.6016 37.2691 68.0193 38.2654C67.4455 39.2526 66.6031 40.0593 65.5889 40.593C64.5513 41.149 63.3793 41.4292 62.07 41.4292C60.7786 41.4292 59.6127 41.1475 58.5766 40.5945ZM80.8421 31.0408H76.6858V41.2632H73.694V31.0408H69.5138V28.51H80.8421V31.0408ZM93.3379 31.0408H89.1801V41.2632H86.1883V31.0408H82.0111V28.51H93.3364L93.3379 31.0408ZM98.0407 31.5997C97.3793 32.1675 96.9747 32.9192 96.8314 33.8606H104.086C103.957 32.934 103.566 32.1883 102.912 31.613C102.258 31.0393 101.445 30.7561 100.471 30.7561C99.5112 30.7561 98.7035 31.0348 98.0407 31.6012V31.5997ZM106.885 35.8414H96.8553C97.0299 36.7784 97.4898 37.5211 98.2318 38.0726C98.9737 38.6197 99.8964 38.8955 100.998 38.8955C102.402 38.8955 103.559 38.4344 104.468 37.5137L106.071 39.3521C105.488 40.0428 104.74 40.5766 103.894 40.9044C103.017 41.2543 102.028 41.4292 100.926 41.4292C99.5187 41.4292 98.284 41.1505 97.2136 40.593C96.1801 40.0699 95.3206 39.2617 94.7383 38.2654C94.1561 37.2691 93.8634 36.1423 93.8634 34.8851C93.8634 33.6457 94.1471 32.5263 94.7144 31.5315C95.2654 30.5516 96.0814 29.7443 97.0703 29.2009C98.075 28.6449 99.2081 28.3662 100.471 28.3662C101.716 28.3662 102.827 28.639 103.809 29.1905C104.79 29.7376 105.556 30.5115 106.107 31.5063C106.656 32.5011 106.934 33.6501 106.934 34.9592C106.934 35.1668 106.918 35.4574 106.885 35.8414ZM122.468 28.51V41.2617H119.5V31.0393H113.206V41.2617H110.211V28.51H122.468ZM129.589 31.5997C128.928 32.1675 128.523 32.9192 128.38 33.8606H135.636C135.507 32.934 135.116 32.1883 134.462 31.613C133.808 31.0393 132.993 30.7561 132.021 30.7561C131.06 30.7561 130.252 31.0348 129.589 31.6012V31.5997ZM138.435 35.8414H128.404C128.583 36.7784 129.04 37.5211 129.782 38.0726C130.524 38.6197 131.446 38.8955 132.547 38.8955C133.95 38.8955 135.109 38.4344 136.018 37.5137L137.621 39.3521C137.038 40.043 136.289 40.5768 135.443 40.9044C134.565 41.2543 133.577 41.4292 132.475 41.4292C131.072 41.4292 129.834 41.1505 128.762 40.593C127.729 40.0699 126.869 39.2617 126.287 38.2654C125.705 37.2691 125.412 36.1423 125.412 34.8851C125.412 33.6457 125.696 32.5263 126.263 31.5315C126.814 30.5516 127.63 29.7443 128.619 29.2009C129.625 28.6449 130.76 28.3662 132.021 28.3662C133.265 28.3662 134.377 28.639 135.358 29.1905C136.339 29.7376 137.105 30.5115 137.656 31.5063C138.206 32.5011 138.483 33.6501 138.483 34.9592C138.483 35.1668 138.468 35.4574 138.435 35.8414ZM153.181 28.51V41.2617H150.189V31.0393H145.399L145.281 33.5715C145.202 35.2587 145.046 36.6731 144.814 37.8117C144.583 38.9489 144.192 39.8488 143.641 40.51C143.091 41.1698 142.336 41.4989 141.377 41.4989C140.931 41.4989 140.38 41.4099 139.726 41.238L139.87 38.7324C140.093 38.7784 140.285 38.8021 140.444 38.8021C141.05 38.8021 141.504 38.5589 141.809 38.0726C142.129 37.5398 142.33 36.9446 142.397 36.3276C142.484 35.6516 142.561 34.685 142.623 33.4277L142.837 28.5085H153.181V28.51ZM164.933 38.5382C165.396 38.1557 165.627 37.5982 165.627 36.8673C165.627 36.1527 165.403 35.6249 164.957 35.2913C164.509 34.9563 163.833 34.7813 162.923 34.765L160.194 34.7413V39.063L162.923 39.0867C163.8 39.103 164.47 38.9236 164.933 38.5382ZM167.363 33.8102C168.229 34.5426 168.667 35.5804 168.667 36.9177C168.667 38.3158 168.189 39.3981 167.23 40.1616C166.273 40.9251 164.925 41.3002 163.185 41.2839L157.199 41.2602V28.51H160.194V32.6879L163.616 32.7116C165.243 32.7116 166.491 33.0778 167.363 33.8102Z" fill="white"/>
  </symbol>
    
  <symbol id="tg" width="65" height="64" viewBox="0 0 65 64" fill="none" xmlns="http://www.w3.org/2000/svg">
    <rect x="0.5" width="64" height="64" rx="32" fill="currentColor"/>
    <path d="M25.9123 46.1586L26.4716 38.0477L41.8115 24.7787C42.4906 24.1843 41.6717 23.8967 40.7729 24.4144L21.8377 35.9001L13.6484 33.4074C11.8907 32.928 11.8707 31.7584 14.0479 30.9147L45.9461 19.103C47.4042 18.4702 48.8024 19.4482 48.2431 21.5957L42.8102 46.1586C42.4307 47.9035 41.3321 48.3254 39.8141 47.52L31.545 41.6525L27.5702 45.3533C27.1108 45.7943 26.7313 46.1586 25.9123 46.1586Z" fill="#323232"/>
  </symbol>
    
  <symbol id="vk" width="65" height="64" viewBox="0 0 65 64" fill="none" xmlns="http://www.w3.org/2000/svg">
    <rect x="0.5" width="64" height="64" rx="32" fill="currentColor"/>
    <path d="M34.1969 45C21.2138 45 13.8086 35.6156 13.5 20H20.0034C20.2171 31.4615 25.0114 36.3163 28.8091 37.3173V20H34.933V29.8849C38.6831 29.4595 42.6227 24.955 43.9519 20H50.0757C49.055 26.1061 44.7827 30.6106 41.7446 32.4625C44.7827 33.964 49.6487 37.8929 51.5 45H44.759C43.3111 40.2452 39.7037 36.5666 34.933 36.0661V45H34.1969Z" fill="#323232"/>
  </symbol>

  <symbol id="icon-close" width="30" height="30" viewBox="0 0 30 30" fill="none" xmlns="http://www.w3.org/2000/svg">
    <path fill-rule="evenodd" clip-rule="evenodd" d="M29.6006 0.3994C30.1331 0.931933 30.1331 1.79534 29.6006 2.32787L2.32787 29.6006C1.79534 30.1331 0.931933 30.1331 0.3994 29.6006C-0.133133 29.0681 -0.133133 28.2047 0.3994 27.6721L27.6721 0.3994C28.2047 -0.133133 29.0681 -0.133133 29.6006 0.3994Z" fill="#FFB4B4"/>
    <path fill-rule="evenodd" clip-rule="evenodd" d="M0.3994 0.3994C0.931933 -0.133133 1.79534 -0.133133 2.32787 0.3994L29.6006 27.6721C30.1331 28.2047 30.1331 29.0681 29.6006 29.6006C29.0681 30.1331 28.2047 30.1331 27.6721 29.6006L0.3994 2.32787C-0.133133 1.79534 -0.133133 0.931933 0.3994 0.3994Z" fill="#FFB4B4"/>
    </symbol>
    

  <symbol id="step1" width="81" height="81" viewBox="0 0 81 81" fill="none" xmlns="http://www.w3.org/2000/svg">
    <path d="M47.4543 2H9.50025C5.36422 2 2 5.36399 2 9.4997V50.5882C2 51.4738 2.46207 52.2606 3.23721 52.6916C3.6072 52.8975 4.00815 52.9996 4.40828 52.9996C4.84524 52.9996 5.28052 52.8774 5.67227 52.6347L22.5972 42.1728L39.5213 52.6347C40.273 53.1001 41.1838 53.1227 41.9564 52.6916C42.7315 52.2606 43.1944 51.4738 43.1944 50.5882V15.7481H52.3571C52.712 15.7481 53 15.4601 53 15.1052V7.54526C52.9983 4.4893 50.5105 2.00168 47.4543 2ZM31.5632 21.6993L28.8929 23.6395C28.5162 23.9132 28.3597 24.3945 28.5037 24.8373L29.5241 27.9761C29.8455 28.9654 29.5098 30 28.6677 30.611C28.2467 30.9165 27.7645 31.0697 27.2824 31.0697C26.7994 31.0697 26.3172 30.9174 25.897 30.611L23.2267 28.6708C22.8484 28.3963 22.3419 28.3971 21.9669 28.6717L19.2966 30.611C18.4562 31.2237 17.368 31.2221 16.5259 30.611C15.6838 30 15.3481 28.9655 15.6696 27.9761L16.69 24.8373C16.8339 24.3945 16.6774 23.9132 16.3007 23.6403L13.6304 21.6993C12.7883 21.0883 12.4527 20.0537 12.7741 19.0643C13.0955 18.075 13.9753 17.4355 15.0158 17.4355H18.3164C18.7818 17.4355 19.1912 17.1384 19.3351 16.6956L20.3555 13.5576C20.677 12.5682 21.5568 11.9287 22.5972 11.9287C23.6369 11.9287 24.5167 12.5682 24.8381 13.5576L25.8585 16.6956C26.0025 17.1384 26.4118 17.4355 26.8772 17.4355H30.1779C31.2184 17.4355 32.0981 18.075 32.4196 19.0643C32.741 20.0537 32.4053 21.0882 31.5632 21.6993ZM51.7142 14.4624H43.1944V7.54526C43.1944 5.19659 45.1055 3.28566 47.4543 3.28566C49.8015 3.28733 51.7126 5.19826 51.7142 7.54526L51.7142 14.4624Z" fill="#323232"/>
    <path d="M29.9454 18.6501H26.7039C25.6976 18.6501 24.813 17.9786 24.5031 16.9789L23.5009 13.7592C23.3266 13.1992 22.8696 13 22.5004 13C22.1305 13 21.6734 13.1992 21.4991 13.7592L20.4969 16.9789C20.187 17.9786 19.3024 18.6501 18.2962 18.6501H15.0546C14.4906 18.6501 14.1675 19.0426 14.0541 19.4102C13.9398 19.7769 13.9801 20.2931 14.4356 20.6392L17.0581 22.6299C17.8728 23.2465 18.2107 24.3329 17.8991 25.3326L16.8969 28.5532C16.7235 29.1131 16.9808 29.5554 17.28 29.7821C17.5793 30.0106 18.061 30.1282 18.5173 29.783L21.1398 27.7922C21.5468 27.4839 22.0236 27.3293 22.5004 27.3293C22.9772 27.3293 23.4532 27.4831 23.8602 27.7914L26.4827 29.783C26.9398 30.1291 27.4215 30.0097 27.72 29.7821C28.0192 29.5554 28.2765 29.1131 28.1031 28.5532L27.1009 25.3326C26.7893 24.3329 27.1272 23.2465 27.9419 22.629L30.5645 20.6392C31.0199 20.2931 31.0602 19.7769 30.9459 19.4102C30.8325 19.0426 30.5094 18.6501 29.9454 18.6501Z" fill="#323232"/>
  </symbol>
    
    
  <symbol id="step2" width="80" height="80" viewBox="0 0 80 80" fill="none" xmlns="http://www.w3.org/2000/svg">
    <path d="M35.3156 15.8203C33.275 15.8203 31.6149 14.1643 31.6149 12.1289V0H12.6884C9.48183 0 6.87305 2.60223 6.87305 5.80078V48.1992C6.87305 51.3978 9.48183 54 12.6884 54H42.294C45.5006 54 48.1094 51.3978 48.1094 48.1992V15.8203H35.3156ZM15.5433 37.9688H23.2323C24.1082 37.9688 24.8183 38.6771 24.8183 39.5508C24.8183 40.4245 24.1082 41.1328 23.2323 41.1328H15.5433C14.6674 41.1328 13.9572 40.4245 13.9572 39.5508C13.9572 38.6771 14.6674 37.9688 15.5433 37.9688ZM13.9572 31.1133C13.9572 30.2396 14.6674 29.5312 15.5433 29.5312H38.8048C39.6807 29.5312 40.3908 30.2396 40.3908 31.1133C40.3908 31.987 39.6807 32.6953 38.8048 32.6953H15.5433C14.6674 32.6953 13.9572 31.987 13.9572 31.1133ZM38.8048 21.0938C39.6807 21.0938 40.3908 21.8021 40.3908 22.6758C40.3908 23.5495 39.6807 24.2578 38.8048 24.2578H15.5433C14.6674 24.2578 13.9572 23.5495 13.9572 22.6758C13.9572 21.8021 14.6674 21.0938 15.5433 21.0938H38.8048Z" fill="#323232"/>
    <path d="M34.2773 12.1289C34.2773 12.4197 34.5139 12.6563 34.8047 12.6563H46.8612C46.5718 12.122 46.1995 11.6312 45.7522 11.208L35.5826 1.58689C35.188 1.21353 34.7484 0.902081 34.2774 0.656128V12.1289H34.2773Z" fill="#323232"/>
  </symbol>
  
  <symbol id="step3" width="78" height="78" viewBox="0 0 78 78" fill="none" xmlns="http://www.w3.org/2000/svg">
    <path d="M51.5588 17.6822C51.2078 17.2207 50.69 16.9173 50.1137 16.8415L47.6654 16.2501H0V35.7496C0 36.5664 0.470121 37.251 1.13747 37.6215L0.740981 40.6049C0.584985 41.79 1.41696 42.8778 2.60207 43.0359L45.2106 48.7297C45.3081 48.7427 45.4056 48.7492 45.501 48.7492C46.5605 48.7492 47.4878 47.9714 47.6416 46.8924L51.977 19.2985C52.0593 18.7264 51.9098 18.1436 51.5588 17.6822ZM28.1659 24.9142C28.1659 23.7183 29.1344 22.7498 30.3304 22.7498H38.999C40.195 22.7498 41.1656 23.7183 41.1656 24.9142V29.2518C41.1656 30.4477 40.195 31.4162 38.999 31.4162H30.3304C29.1344 31.4162 28.1659 30.4477 28.1659 29.2518V24.9142ZM43.6594 44.1516L5.32113 39.0276L5.46849 37.9161H44.5585L43.6594 44.1516Z" fill="#323232"/>
    <path d="M45.4988 3.25061H2.16658C0.970608 3.25051 0 4.22122 0 5.41719V11.917H47.6654V5.41719C47.6654 4.22122 46.6948 3.25061 45.4988 3.25061Z" fill="#323232"/>
  </symbol>
    
  <symbol id="step4" width="74" height="74" viewBox="0 0 74 74" fill="none" xmlns="http://www.w3.org/2000/svg">
    <path d="M49.3066 14.1602L28.291 38.2129C26.6992 40.0293 23.9453 40.2148 22.1191 38.6328C21.9727 38.5059 21.8359 38.3691 21.6992 38.2129L0.693359 14.1602C0.234375 14.9512 0 15.8594 0 16.7773V44.7559C0 47.6465 2.35352 50 5.25391 50H44.7559C47.6562 50 50.0098 47.6465 50.0098 44.7461V16.7773C50 15.8594 49.7656 14.9512 49.3066 14.1602Z" fill="#323232"/>
    <path d="M27.3828 37.4121L48.5742 13.1641C47.5781 12.1191 46.1914 11.5234 44.7461 11.5234H29.5312V18.4961C29.5312 20.2734 28.0859 21.7187 26.3086 21.7187H23.6816C21.9043 21.7187 20.459 20.2734 20.459 18.4961V11.5234H5.25391C3.80859 11.5234 2.43164 12.1191 1.43555 13.1641L22.627 37.4121C23.7793 38.7207 25.7715 38.8574 27.0801 37.7051C27.1875 37.6172 27.2852 37.5195 27.3828 37.4121Z" fill="#323232"/>
    <path d="M20.2735 8.91599H21.6798V18.5058C21.6798 19.6093 22.5782 20.5175 23.6817 20.5175H26.3087C27.4122 20.5175 28.3106 19.6191 28.3106 18.5058V8.91599H29.7169C31.4356 8.91599 32.3243 6.85544 31.1427 5.60544L26.4259 0.615207C25.6837 -0.175808 24.4434 -0.205105 23.6524 0.537082C23.6231 0.566379 23.6036 0.585911 23.5743 0.615207L18.8477 5.60544C17.6661 6.85544 18.5548 8.91599 20.2735 8.91599Z" fill="#323232"/>
  </symbol>
          
  <symbol id="nominations" width="126" height="126" viewBox="0 0 126 126" fill="none" xmlns="http://www.w3.org/2000/svg">
    <circle cx="63" cy="63" r="62.5" fill="#323232" stroke="#6D6D6D"/>
    <path d="M48.0667 17L53.5839 20.3704L55.8276 25.1328L55.9379 27.8804L55.6805 28.8329L56.1586 29.6023V33.5954L53.9885 36.4163L50.1632 37.9183L46.9264 39.6767L44.2414 42.4243V43.0837L45.1241 43.56L46.7793 41.9847L51.377 40.6292L51.7448 41.9847L49.7586 44.9521L47.3678 44.8422L45.6759 45.5382L49.2437 48.066L48.2874 48.5789L51.5241 51.5463L52.2966 54.88L53.5103 56.8949L52.6644 60.6316L52.8115 61.3643L60.0207 62.3901H67.377L73.9977 61.2178L82.0161 61.9505C83.6345 62.7931 86.9154 64.5295 87.092 64.7347L90.6598 67.2258L91.5425 72.721L88.6368 69.0209V70.5229L89.2621 77.4102L90.6598 81.6598L95 88.254L93.9701 97.2661L93.0506 104.74L93.4552 106.058L92.7563 107.78H87.8276L88.8943 105.655L90.3287 104.959L91.4322 97.5958L90.4759 90.5986L86.5402 87.0817L87.9379 90.4521L85.2529 99.8305L83.892 104.74L84.1494 106.608L83.3034 108L78.0805 107.927L78.9632 105.839L80.8023 105.252L82.8988 97.5958L83.046 90.1956L77.9333 87.8877L73.9609 80.6341L62.5218 82.246L56.7839 81.5499L55.9379 86.3857L54.7241 93.8225L51.6345 104.117L51.5241 105.362L51.8184 106.461L51.2299 107.927H46.5218L47.0736 106.205L48.5448 105.069L50.8621 97.4493L51.0828 88.6936L50.1632 80.4875L49.869 79.7182L47.3678 80.9638L42.6966 81.3301L40.269 82.649L39.092 83.345L35.7448 90.965L36.554 92.1739L32.508 95.4344L32.1402 92.6868L37.1793 80.2677L39.9747 79.0221L47.2546 74.4428L45.4552 72.2081L43.5057 68.3249L42.5126 68.1783L41.3356 64.4416H40.3793L40.6736 59.4593L42.9172 56.1622L40.4897 54.5503L38.2092 54.2572L34.0529 54.8434L33.4276 54.0374L31.8092 52.9384V51.5829L32.8481 50.5572L36.0391 47.4066L36.7011 45.3551L39.6805 42.5709L37.1425 41.1055L33.6851 40.2629L31.4414 38.1381L31 34.7311L32.5448 37.7717L34.3103 38.9074L33.023 36.7093L32.6552 32.6063L33.1701 29.7488L32.3609 27.3309L33.1701 24.2536L33.3172 27.221L34.0161 27.9537L34.2 25.1695L37.2161 21.0664L35.2299 25.4992L35.1195 25.9388L35.3034 29.1626L34.4575 31.6171V32.7895L35.9655 30.5181L38.3195 28.8696L39.9011 27.3309L39.0184 29.529L36.4069 31.837L35.1931 34.2548L35.377 37.8816L37.6943 39.347H38.2828L37.2897 36.6361L38.8345 33.9984L38.9816 37.442L40.0483 39.8233L42.6598 40.5193L44.1678 38.5777L43.5057 36.5628L44.6828 33.5954L44.977 36.7093L45.6759 37.8084L48.2874 36.9291L51.3034 34.3281L51.0828 31.031L49.2805 28.5399L48.3241 25.2794L50.1632 27.8804L52.0759 29.5083L52.1862 29.6023L52.8115 31.9835L53.5471 31.0676L53.8782 30.3349L54.3998 28.9428L54.246 28.0636L53.9885 27.3309L51.8184 24.4002L54.577 26.0853L52.6276 21.4328L48.0667 17Z" fill="#6D6D6D"/>
    <path d="M55.8276 25.1329L53.5839 20.3704L48.0667 17L52.6276 21.4328M55.8276 25.1329L52.6276 21.4328M55.8276 25.1329L54.3998 28.9428M55.8276 25.1329L55.9379 27.8804L55.6805 28.8329M52.6276 21.4328L54.577 26.0853M54.577 26.0853L51.8184 24.4002L53.9885 27.3309L54.246 28.0636M54.577 26.0853L54.246 28.0636M54.246 28.0636L54.3998 28.9428M53.5471 31.0676L53.8782 30.3349L54.3998 28.9428M53.5471 31.0676L52.8115 31.9835M53.5471 31.0676V31.5072L52.9218 34.841M52.8115 31.9835L52.1862 29.6023L52.0759 29.5083M52.8115 31.9835L51.3034 34.3281M49.2805 28.5399L48.3241 25.2794L50.1632 27.8804L52.0759 29.5083M49.2805 28.5399L52.0759 29.5083M49.2805 28.5399L51.0828 31.031L51.3034 34.3281M51.3034 34.3281L50.1632 37.9183M51.3034 34.3281L48.2874 36.9291L45.6759 37.8084M50.1632 37.9183L52.9218 34.841M50.1632 37.9183L53.9885 36.4163M50.1632 37.9183L45.6759 37.8084M50.1632 37.9183L46.9264 39.6767L44.2414 42.4243M52.9218 34.841L54.7642 31.6904M52.9218 34.841L54.4816 33.4122M55.6805 28.8329L54.8713 31.5072L54.7642 31.6904M55.6805 28.8329L56.1586 29.6023V33.5954L53.9885 36.4163M53.9885 36.4163L54.4816 33.4122M54.7642 31.6904L54.4816 33.4122M45.6759 37.8084L44.2414 42.4243M45.6759 37.8084L44.977 36.7093M45.6759 37.8084L44.1678 38.5777M44.2414 42.4243L42.6598 40.5193M44.2414 42.4243V43.0837M44.977 36.7093L44.6828 33.5954L43.5057 36.5628M44.977 36.7093L43.5057 36.5628M43.5057 36.5628L44.1678 38.5777M44.1678 38.5777L42.6598 40.5193M42.6598 40.5193L40.0483 39.8233M44.2414 43.0837L39.6805 42.5709M44.2414 43.0837L42.4759 44.1095M44.2414 43.0837L45.1241 43.56M39.6805 42.5709L40.0483 39.8233M39.6805 42.5709L37.1425 41.1055M39.6805 42.5709L38.9816 44.7689M39.6805 42.5709L36.7011 45.3551M40.0483 39.8233L38.9816 37.442M40.0483 39.8233L38.2828 39.347M38.9816 37.442L38.8345 33.9984L37.2897 36.6361M38.9816 37.442L37.2897 36.6361M37.2897 36.6361L38.2828 39.347M38.2828 39.347H37.6943M37.6943 39.347L35.377 37.8816M37.6943 39.347L34.7149 39.5668M35.377 37.8816L35.1931 34.2548M35.377 37.8816L34.3103 34.1816M35.1931 34.2548L36.4069 31.837L39.0184 29.529L39.9011 27.3309L38.3195 28.8696L35.9655 30.5181M35.1931 34.2548L35.9655 30.5181M35.9655 30.5181L34.4575 32.7895M34.4575 32.7895V31.6171L35.3034 29.1626L35.1195 25.9388M34.4575 32.7895L34.3103 34.1816M35.1195 25.9388L35.2299 25.4992L37.2161 21.0664L34.2 25.1695L34.0161 27.9537M35.1195 25.9388L33.9057 29.4191M34.0161 27.9537L33.3172 27.221L33.1701 24.2536L32.3609 27.3309L33.1701 29.7488L32.6552 32.6063M34.0161 27.9537L33.9057 29.4191M32.6552 32.6063L33.9057 29.4191M32.6552 32.6063L34.3103 34.1816M32.6552 32.6063L33.023 36.7093L34.3103 38.9074M34.3103 34.1816L34.7149 39.5668M34.3103 38.9074L32.5448 37.7717L31 34.7311L31.4414 38.1381L33.6851 40.2629L37.1425 41.1055M34.3103 38.9074L34.7149 39.5668M37.1425 41.1055L34.7149 39.5668M38.9816 44.7689L36.7011 45.3551M38.9816 44.7689L42.4759 44.1095M36.7011 45.3551L36.0391 47.4066L32.8481 50.5572M36.7011 45.3551L38.8345 46.4907M31.8092 52.9384V51.5829L32.8481 50.5572M31.8092 52.9384L32.9126 51.9859L32.8481 50.5572M31.8092 52.9384L33.4276 54.0374M32.8481 50.5572L38.8345 47.7363M32.8481 50.5572L35.8184 50.7403M38.8345 47.7363L38.4667 47.0769L38.8345 46.4907M38.8345 47.7363L40.6 47.0769M38.8345 47.7363L38.3195 50.8502M38.8345 46.4907L40.6 47.0769M42.4759 44.1095L40.6 47.0769M42.4759 44.1095L44.977 47.6264M42.4759 44.1095L45.6759 45.5382M40.6 47.0769L43.2851 49.6779M43.2851 49.6779L44.977 47.6264M43.2851 49.6779L41.8506 52.3523M43.2851 49.6779L46.154 54.6969M44.977 47.6264L48.2874 48.5789M45.6759 45.5382L45.1241 43.56M45.6759 45.5382L48.2874 48.5789M45.6759 45.5382L49.2437 48.066L48.2874 48.5789M45.6759 45.5382L47.3678 44.8422M45.1241 43.56L46.7793 41.9847M33.4276 54.0374L34.0529 54.8434L38.2092 54.2572M33.4276 54.0374L38.2092 54.2572M38.2092 54.2572L35.8184 50.7403M38.2092 54.2572L41.8506 52.3523M38.2092 54.2572L40.4897 54.5503M35.8184 50.7403L38.3195 50.8502M41.8506 52.3523L38.3195 50.8502M41.8506 52.3523L40.4897 54.5503M41.8506 52.3523L42.9172 56.1622M41.8506 52.3523L46.154 54.6969M40.4897 54.5503L42.9172 56.1622M42.9172 56.1622L46.154 54.6969M42.9172 56.1622L47.7724 56.8949M42.9172 56.1622L40.6736 59.4593L40.3793 64.4416H41.3356M42.9172 56.1622L43.6529 61.5475M46.154 54.6969L48.2874 48.5789M46.154 54.6969L51.2667 54.5503M48.2874 48.5789L51.2667 54.5503M48.2874 48.5789L51.5241 51.5463M47.3678 44.8422L49.7586 44.9521L51.7448 41.9847M47.3678 44.8422L46.7793 41.9847M51.7448 41.9847L51.377 40.6292L46.7793 41.9847M51.7448 41.9847H46.7793M51.2667 54.5503L51.5241 51.5463M51.2667 54.5503L47.7724 56.8949M51.2667 54.5503L52.2966 54.88M51.5241 51.5463L52.2966 54.88M47.7724 56.8949L43.6529 61.5475M47.7724 56.8949L50.9356 58.5435M52.2966 54.88L50.9356 58.5435M52.2966 54.88L53.5103 56.8949M43.6529 61.5475L47.7724 64.4416M43.6529 61.5475L50.9356 58.5435M43.6529 61.5475L41.3356 64.4416M43.6529 61.5475L43.5057 68.3249M50.9356 58.5435L53.5103 56.8949M50.9356 58.5435L53.2161 63.0862M50.9356 58.5435V70.4497M50.9356 58.5435L47.7724 64.4416M53.5103 56.8949L52.6644 60.6316L52.8115 61.3643M52.8115 61.3643L53.2161 63.0862M52.8115 61.3643L60.0207 62.3901M53.2161 63.0862L50.9356 70.4497M53.2161 63.0862L57.0782 64.7713M50.9356 70.4497L48.2506 68.5813M50.9356 70.4497L55.0552 69.2407M50.9356 70.4497L52.6276 76.3112M47.7724 64.4416L43.5057 68.3249M47.7724 64.4416L48.2506 68.5813M41.3356 64.4416L42.5126 68.1783L43.5057 68.3249M43.5057 68.3249L45.4552 72.2081M45.4552 72.2081L48.2506 68.5813M45.4552 72.2081L47.2546 74.4428M48.2506 68.5813L48.4345 75.9082M57.0782 64.7713L60.0207 62.3901M57.0782 64.7713L55.0552 69.2407M57.0782 64.7713L66.2736 65.7238M57.0782 64.7713L64.3241 70.9992M57.0782 64.7713L59.8 74.0399M60.0207 62.3901H67.377M60.0207 62.3901L66.2736 65.7238M55.0552 69.2407L52.6276 76.3112M55.0552 69.2407L59.8 74.0399M48.4345 75.9082L49.3908 78.3627M48.4345 75.9082L47.2546 74.4428M48.4345 75.9082C48.5522 75.9082 51.2789 76.1769 52.6276 76.3112M49.3908 78.3627L49.869 79.7182M49.3908 78.3627C46.3011 78.5517 40.0924 78.9481 39.9747 79.0221M49.869 79.7182L47.3678 80.9638L42.6966 81.3301M49.869 79.7182L50.1632 80.4875M42.6966 81.3301L40.269 82.649M42.6966 81.3301L39.9747 79.0221M40.269 82.649L39.092 83.345L35.7448 90.965M40.269 82.649L37.1793 80.2677M40.269 82.649L39.9747 79.0221M35.7448 90.965L36.554 92.1739L32.508 95.4344L32.1402 92.6868M35.7448 90.965L32.1402 92.6868M35.7448 90.965L37.1793 80.2677M32.1402 92.6868L37.1793 80.2677M37.1793 80.2677L39.9747 79.0221M39.9747 79.0221L47.2546 74.4428M50.1632 80.4875L51.0828 88.6936L50.8621 97.4493L48.5448 105.069M50.1632 80.4875L54.7241 93.8225M50.1632 80.4875L55.9379 86.3857M50.1632 80.4875L58.8069 79.0221M48.5448 105.069L47.0736 106.205L46.5218 107.927H51.2299M48.5448 105.069L51.2299 107.927M48.5448 105.069L54.7241 93.8225M51.2299 107.927L51.8184 106.461L51.5241 105.362L51.6345 104.117L54.7241 93.8225M54.7241 93.8225L55.9379 86.3857M55.9379 86.3857L56.7839 81.5499M58.8069 79.0221L56.7839 81.5499M58.8069 79.0221L52.6276 76.3112M58.8069 79.0221L60.646 77.1538M56.7839 81.5499L62.5218 82.246L73.9609 80.6341M56.7839 81.5499L67.4138 78.9228M52.6276 76.3112L59.8 74.0399M73.9609 80.6341L67.4138 78.9228M73.9609 80.6341L77.9333 87.8877M73.9609 80.6341L74.8437 77.5934M60.646 77.1538L67.4138 78.9228M60.646 77.1538L59.8 74.1864M60.646 77.1538L70.2092 74.8458M67.4138 78.9228L70.2092 74.8458M77.9333 87.8877L83.046 90.1957M77.9333 87.8877L85.9517 86.1659M77.9333 87.8877L84.6276 81.1836M77.9333 87.8877L78.2276 78.839M83.046 90.1957L82.8989 97.5958L80.8023 105.252M83.046 90.1957L85.2529 99.8305M80.8023 105.252L78.9632 105.839L78.0805 107.927L83.3034 108M80.8023 105.252L83.3034 108M80.8023 105.252C80.7838 105.32 83.7616 101.666 85.2529 99.8305M83.3034 108L84.1494 106.608L83.892 104.74L85.2529 99.8305M85.2529 99.8305L87.9379 90.4521L86.5402 87.0817M85.9517 86.1659L86.5402 87.0817M85.9517 86.1659L84.9586 83.748M86.5402 87.0817L90.4759 90.5986M90.4759 90.5986L91.4322 97.5958L90.3287 104.959M90.4759 90.5986L93.9701 97.2661M90.4759 90.5986L90.6598 81.6598M90.3287 104.959L88.8943 105.655L87.8276 107.78H92.7563M90.3287 104.959L92.7563 107.78M90.3287 104.959L93.9701 97.2661M92.7563 107.78L93.4552 106.058L93.0506 104.74L93.9701 97.2661M93.9701 97.2661L95 88.254L90.6598 81.6598M90.6598 81.6598L84.9586 83.748M90.6598 81.6598L89.2621 77.4102L88.6368 70.5229M84.9586 83.748L84.6276 81.1836M84.6276 81.1836L78.2276 78.839M84.6276 81.1836L84.9586 72.5745M84.6276 81.1836L87.8644 76.531L88.6368 70.5229M78.2276 78.839L74.8437 77.5934M84.9586 72.5745L88.6368 69.0209M84.9586 72.5745L74.8437 77.5934M84.9586 72.5745L70.2092 74.8458M84.9586 72.5745L78.2276 64.5882M84.9586 72.5745L72.7103 68.8744M88.6368 69.0209L91.5425 72.721L90.6598 67.2258M88.6368 69.0209L88.0483 67.2258M88.6368 69.0209V70.5229M90.6598 67.2258H88.0483M90.6598 67.2258L87.092 64.7347M88.0483 67.2258L87.092 64.7347M87.092 64.7347C86.9154 64.5295 83.6345 62.7931 82.0161 61.9505M87.092 64.7347L78.2276 64.5882M82.0161 61.9505L73.9977 61.2178M82.0161 61.9505L78.2276 64.5882M73.9977 61.2178L67.377 62.3901M73.9977 61.2178L78.2276 64.5882M67.377 62.3901L66.2736 65.7238M66.2736 65.7238L64.3241 70.9992M66.2736 65.7238L78.2276 64.5882M66.2736 65.7238L72.7103 68.8744M66.2736 65.7238L70.2092 74.8458M64.3241 70.9992L59.8 74.0399M64.3241 70.9992L70.2092 74.8458M70.2092 74.8458L74.8437 77.5934M70.2092 74.8458L72.7103 68.8744M78.2276 64.5882L72.7103 68.8744" stroke="#323232" stroke-width="0.189751"/>
  </symbol>
    

  <symbol id="arrow" width="44" height="28" viewBox="0 0 44 28" fill="none" xmlns="http://www.w3.org/2000/svg">
    <path fill-rule="evenodd" clip-rule="evenodd" d="M0.5 14.0005C0.5 13.1721 1.17157 12.5005 2 12.5005L41 12.5005C41.8284 12.5005 42.5 13.1721 42.5 14.0005C42.5 14.8289 41.8284 15.5005 41 15.5005L2 15.5005C1.17157 15.5005 0.5 14.8289 0.5 14.0005Z" fill="white"/>
    <path fill-rule="evenodd" clip-rule="evenodd" d="M28.9393 1.27332C29.5251 0.687538 30.4749 0.687538 31.0607 1.27332L42.7273 12.94C43.3131 13.5258 43.3131 14.4755 42.7273 15.0613L31.0607 26.728C30.4749 27.3138 29.5251 27.3138 28.9393 26.728C28.3536 26.1422 28.3536 25.1924 28.9393 24.6067L39.5453 14.0007L28.9393 3.39464C28.3536 2.80886 28.3536 1.85911 28.9393 1.27332Z" fill="white"/>
  </symbol>

  <symbol id="arrow-up-right" width="28" height="28" viewBox="0 0 28 28" fill="none" xmlns="http://www.w3.org/2000/svg">
    <path fill-rule="evenodd" clip-rule="evenodd" d="M27.4171 0.582915C28.1943 1.36013 28.1943 2.62026 27.4171 3.39748L3.39748 27.4171C2.62026 28.1943 1.36013 28.1943 0.582915 27.4171C-0.194305 26.6399 -0.194305 25.3797 0.582915 24.6025L24.6025 0.582915C25.3797 -0.194305 26.6399 -0.194305 27.4171 0.582915Z" fill="white"/>
    <path fill-rule="evenodd" clip-rule="evenodd" d="M0 1.9902C0 0.891041 0.891041 0 1.9902 0H26.0098C27.109 0 28 0.891041 28 1.9902V26.0098C28 27.109 27.109 28 26.0098 28C24.9106 28 24.0196 27.109 24.0196 26.0098V3.98039H1.9902C0.891041 3.98039 0 3.08935 0 1.9902Z" fill="white"/>
  </symbol>

  <symbol id="arrow-top" width="26" height="44" viewBox="0 0 26 44" fill="none" xmlns="http://www.w3.org/2000/svg">
    <path fill-rule="evenodd" clip-rule="evenodd" d="M12.9998 43.5C12.1819 43.5 11.5188 42.8232 11.5188 41.9883L11.5188 2.68359C11.5188 1.84869 12.1819 1.17188 12.9998 1.17188C13.8178 1.17188 14.4809 1.84869 14.4809 2.68359L14.4809 41.9883C14.4809 42.8232 13.8178 43.5 12.9998 43.5Z" fill="currentColor"/>
    <path fill-rule="evenodd" clip-rule="evenodd" d="M0.433779 14.8385C-0.144593 14.2481 -0.144593 13.2909 0.433779 12.7006L11.9528 0.942772C12.5311 0.352409 13.4689 0.352409 14.0472 0.942772L25.5662 12.7006C26.1446 13.2909 26.1446 14.2481 25.5662 14.8385C24.9879 15.4288 24.0501 15.4288 23.4718 14.8385L13 4.14961L2.52825 14.8385C1.94988 15.4288 1.01215 15.4288 0.433779 14.8385Z" fill="currentColor"/>
    </symbol>
    
  <symbol id="plus" width="66" height="66" viewBox="0 0 66 66" fill="none" xmlns="http://www.w3.org/2000/svg">
    <path fill-rule="evenodd" clip-rule="evenodd" d="M33.5 12C34.6176 12 35.5235 12.906 35.5235 14.0235V52.9765C35.5235 54.094 34.6176 55 33.5 55C32.3824 55 31.4765 54.094 31.4765 52.9765V14.0235C31.4765 12.906 32.3824 12 33.5 12Z" fill="#D1D1D1"/>
    <path fill-rule="evenodd" clip-rule="evenodd" d="M12 33.5C12 32.3824 12.906 31.4765 14.0235 31.4765H52.9765C54.094 31.4765 55 32.3824 55 33.5C55 34.6176 54.094 35.5235 52.9765 35.5235H14.0235C12.906 35.5235 12 34.6176 12 33.5Z" fill="#D1D1D1"/>
  </symbol>
      
  <symbol id="vk-small" width="33" height="33" viewBox="0 0 33 33" fill="none" xmlns="http://www.w3.org/2000/svg">
    <path d="M17.4378 24C10.2629 24 6.17052 18.7447 6 10H9.594C9.71206 16.4184 12.3616 19.1371 14.4603 19.6977V10H17.8445V15.5355C19.917 15.2973 22.0941 12.7748 22.8287 10H26.2129C25.6488 13.4194 23.2878 15.9419 21.6089 16.979C23.2878 17.8198 25.9769 20.02 27 24H23.2747C22.4746 21.3373 20.481 19.2773 17.8445 18.997V24H17.4378Z" fill="currentColor"/>
  </symbol>

  <symbol id="tg-small" width="33" height="33" viewBox="0 0 33 33" fill="none" xmlns="http://www.w3.org/2000/svg">
    <g clip-path="url(#clip0_393_5095)">
    <path d="M13.715 23.8814L14.0016 19.659L21.864 12.7515C22.2121 12.442 21.7924 12.2923 21.3317 12.5618L11.6265 18.541L7.42912 17.2434C6.52822 16.9938 6.51798 16.3849 7.63387 15.9457L23.9832 9.79681C24.7305 9.4674 25.4471 9.97648 25.1605 11.0945L22.3759 23.8814C22.1814 24.7898 21.6183 25.0094 20.8403 24.5901L16.6019 21.5356L14.5647 23.4622C14.3292 23.6918 14.1347 23.8814 13.715 23.8814Z" fill="currentColor"/>
    </g>
    <defs>
    <clipPath id="clip0_393_5095">
    <rect width="18.4517" height="18.4517" fill="white" transform="translate(6.77344 7.77417)"/>
    </clipPath>
    </defs>
  </symbol>
    
  <symbol id="ok-small" width="33" height="33" viewBox="0 0 33 33" fill="none" xmlns="http://www.w3.org/2000/svg">
    <g clip-path="url(#clip0_393_5110)">
    <path d="M17.5004 10.1764C18.7383 10.1764 19.745 11.1832 19.745 12.4211C19.745 13.6553 18.7383 14.662 17.5004 14.662C16.2624 14.662 15.2557 13.6553 15.2557 12.4211C15.2557 11.1832 16.2624 10.1764 17.5004 10.1764ZM17.5004 17.8389C20.4908 17.8389 22.9219 15.4078 22.9219 12.4211C22.9219 9.43068 20.4908 6.99957 17.5004 6.99957C14.51 6.99957 12.0826 9.43068 12.0826 12.4211C12.0826 15.4078 14.51 17.8389 17.5004 17.8389ZM19.6928 22.2611C20.7965 22.0076 21.8592 21.5713 22.8399 20.9561C23.5819 20.49 23.8056 19.5093 23.3395 18.7673C22.8697 18.0216 21.8928 17.7979 21.147 18.2677C18.9285 19.6622 16.0723 19.6622 13.85 18.2677C13.108 17.7979 12.1273 18.0216 11.6612 18.7673C11.1951 19.5093 11.4189 20.49 12.1609 20.9561C13.1415 21.5713 14.2042 22.0076 15.3079 22.2611L12.2765 25.2888C11.6575 25.9078 11.6575 26.9145 12.2765 27.5335C12.5897 27.843 12.9924 27.9996 13.3988 27.9996C13.8052 27.9996 14.2117 27.843 14.5249 27.5335L17.5004 24.558L20.4796 27.5335C21.0986 28.1562 22.1016 28.1562 22.7243 27.5335C23.3432 26.9145 23.3432 25.9078 22.7243 25.2888L19.6928 22.2611Z" fill="currentColor"/>
    </g>
    <defs>
    <clipPath id="clip0_393_5110">
    <rect width="21" height="21" fill="white" transform="translate(7 7)"/>
    </clipPath>
    </defs>
  </symbol>
        
    
</svg>