<svg width="141" height="76" viewBox="0 0 141 76" fill="none" xmlns="http://www.w3.org/2000/svg">
<path fill-rule="evenodd" clip-rule="evenodd" d="M93.4285 25.0704C93.4285 27.9489 92.2565 30.3528 89.9126 32.2821C87.6052 34.1807 84.6936 35.13 81.1776 35.13C77.5152 35.13 74.5303 34.2113 72.223 32.3739C69.9157 30.5366 68.6704 28.0867 68.4873 25.0244H72.8273C73.1203 27.2599 74.0176 28.9901 75.5192 30.215C77.0574 31.4093 78.9802 32.0065 81.2875 32.0065C83.5949 32.0065 85.4993 31.3787 87.0009 30.1232C88.5391 28.837 89.3083 27.214 89.3083 25.2541C89.3083 23.3861 88.6673 21.9622 87.3855 20.9822C86.1036 19.9717 83.723 19.0224 80.2437 18.1343C77.8998 17.5525 76.2517 17.0778 75.2994 16.7103C74.3472 16.3122 73.4682 15.7916 72.6625 15.1486C70.758 13.648 69.8058 11.6422 69.8058 9.13117C69.8058 6.4976 70.8679 4.32337 72.9921 2.60849C75.1163 0.862987 77.8082 -0.00976562 81.0678 -0.00976562C84.4006 -0.00976562 87.1291 0.847675 89.2533 2.56256C91.3775 4.24682 92.4397 6.45167 92.4397 9.1771H88.2095C88.2095 7.37035 87.5137 5.91577 86.1219 4.81334C84.7668 3.68029 83.0455 3.11377 80.9579 3.11377C78.9436 3.11377 77.2589 3.68029 75.9037 4.81334C74.5853 5.91577 73.926 7.32442 73.926 9.0393C73.926 10.7542 74.567 12.071 75.8488 12.9897C76.6912 13.6021 78.6872 14.3064 81.8369 15.1026C85.3528 15.9907 87.8616 16.8941 89.3632 17.8128C92.0734 19.497 93.4285 21.9162 93.4285 25.0704ZM26.0397 29.9394C29.9951 26.8771 31.9728 22.7889 31.9728 17.6749C31.9728 11.091 28.8964 6.28321 22.7435 3.25154C20.839 2.30223 18.6965 1.62853 16.3159 1.23043C13.972 0.801711 10.9504 0.587352 7.25138 0.587352L1.30851 0.587351V34.5328L8.62479 34.5328C16.2793 34.5328 22.0842 33.0017 26.0397 29.9394ZM25.9298 10.6929C27.2117 12.714 27.8526 14.9954 27.8526 17.5371C27.8526 22.1612 25.9115 25.79 22.0293 28.4236C20.4178 29.4954 18.4767 30.2762 16.206 30.7662C13.9353 31.2256 11.0054 31.4552 7.41619 31.4552L5.37381 31.4552V3.66495H7.41619C13.2395 3.66495 17.5978 4.3999 20.4911 5.8698C22.8351 7.03347 24.648 8.64117 25.9298 10.6929ZM64.0953 34.5329H68.5452L51.0754 0.587381H46.5157L29.1008 34.5329H33.3858L39.319 23.0952H58.2171L64.0953 34.5329ZM48.823 4.44587L56.624 20.0176H40.8572L48.823 4.44587ZM136.765 34.5329H140.831V0.587378H136.765V15.516L99.6829 15.516V0.587381H95.6176V34.5329H99.6829V18.5936L136.765 18.5936V34.5329ZM114.023 65.5487C114.023 68.4272 112.851 70.8311 110.507 72.7604C108.2 74.659 105.288 75.6083 101.773 75.6083C98.1101 75.6083 95.1252 74.6896 92.8179 72.8522C90.5106 71.0149 89.2653 68.565 89.0822 65.5028H93.4222C93.7152 67.7382 94.6125 69.4684 96.1141 70.6933C97.6523 71.8876 99.575 72.4848 101.882 72.4848C104.19 72.4848 106.094 71.857 107.596 70.6015C109.134 69.3153 109.903 67.6923 109.903 65.7324C109.903 63.8644 109.262 62.4405 107.98 61.4605C106.698 60.45 104.318 59.5007 100.839 58.6126C98.4947 58.0308 96.8465 57.5561 95.8943 57.1886C94.9421 56.7905 94.0631 56.27 93.2574 55.6269C91.3529 54.1264 90.4007 52.1206 90.4007 49.6095C90.4007 46.9759 91.4628 44.8017 93.587 43.0868C95.7112 41.3413 98.4031 40.4685 101.663 40.4685C104.995 40.4685 107.724 41.326 109.848 43.0409C111.972 44.7251 113.034 46.93 113.034 49.6554H108.804C108.804 47.8487 108.109 46.3941 106.717 45.2916C105.362 44.1586 103.64 43.5921 101.553 43.5921C99.5384 43.5921 97.8538 44.1586 96.4986 45.2916C95.1802 46.3941 94.5209 47.8027 94.5209 49.5176C94.5209 51.2325 95.1618 52.5493 96.4437 53.468C97.2861 54.0804 99.2821 54.7847 102.432 55.5809C105.948 56.469 108.456 57.3724 109.958 58.2911C112.668 59.9753 114.023 62.3945 114.023 65.5487ZM46.3055 70.4177C50.2609 67.3554 52.2387 63.2673 52.2387 58.1532C52.2387 51.5693 49.1622 46.7615 43.0093 43.7299C41.1048 42.7805 38.9623 42.1068 36.5817 41.7087C34.2378 41.28 31.2163 41.0657 27.5172 41.0657H0.939453V75.0111H28.8906C36.5451 75.0111 42.3501 73.48 46.3055 70.4177ZM46.1956 51.1712C47.4775 53.1923 48.1184 55.4737 48.1184 58.0154C48.1184 62.6395 46.1773 66.2683 42.2951 68.9019C40.6837 69.9737 38.7426 70.7546 36.4718 71.2445C34.2011 71.7039 31.2712 71.9335 27.682 71.9335H5.00475V44.1433H27.682C33.5053 44.1433 37.8636 44.8782 40.7569 46.3481C43.1009 47.5118 44.9138 49.1195 46.1956 51.1712ZM84.5647 75.0112H89.0145L71.5447 41.0657H66.985L49.5701 75.0112H53.8552L59.7883 63.5735H78.6865L84.5647 75.0112ZM69.2923 44.9242L77.0933 60.4959H61.3265L69.2923 44.9242ZM136.689 75.0112H140.754V41.0657H136.689V55.9943H123.475V41.0657H119.41V75.0112H123.475V59.0719H136.689V75.0112Z" fill="#252422"/>
</svg>
