<svg width="162" height="75" viewBox="0 0 162 75" fill="none" xmlns="http://www.w3.org/2000/svg">
<path d="M63.0881 9.85268H5.1794C2.4149 9.85268 0.173828 12.0768 0.173828 14.8205V58.8215C0.173828 61.5651 2.41489 63.7892 5.17939 63.7892H62.5861L58.8166 60.0634H5.17939C4.48827 60.0634 3.92801 59.5074 3.92801 58.8215V14.8205C3.92801 14.1346 4.48827 13.5785 5.1794 13.5785H59.3187L63.0881 9.85268Z" fill="black"/>
<path d="M95.8699 37.0155C95.8699 51.8915 89.1297 65.2115 78.5033 74.1546L75.2419 70.931C85.0418 62.8205 91.2741 50.6374 91.2741 37.0155C91.2741 23.4577 85.1003 11.3252 75.38 3.21483L78.6404 -0.0078125C89.1876 8.93422 95.8699 22.2035 95.8699 37.0155Z" fill="black"/>
<path d="M81.2128 37.0156C81.2128 47.8923 76.0863 57.5854 68.0914 63.8632L64.827 60.6365C72.0034 55.201 76.631 46.6425 76.631 37.0156C76.631 27.453 72.065 18.9445 64.9704 13.504L68.2326 10.2795C76.1466 16.5602 81.2128 26.2031 81.2128 37.0156Z" fill="black"/>
<path d="M67.9402 37.0156C67.9402 44.2736 64.2414 50.6778 58.6053 54.4868L55.2997 51.2194C60.1385 48.2986 63.3684 43.03 63.3684 37.0156C63.3684 31.0666 60.2082 25.8471 55.4566 22.9078L58.7556 19.6469C64.3071 23.4677 67.9402 29.8223 67.9402 37.0156Z" fill="black"/>
<path d="M40.9449 37.0153C40.9449 40.0713 43.4513 42.5486 46.543 42.5486C49.6348 42.5486 52.1411 40.0713 52.1411 37.0153C52.1411 33.9593 49.6348 31.4819 46.543 31.4819C43.4513 31.4819 40.9449 33.9593 40.9449 37.0153Z" fill="black"/>
<path d="M113.44 13.4647L118.862 28.5969L124.255 13.4647H129.967V34.3288H125.604V28.6255L126.038 18.781L120.341 34.3288H117.355L111.672 18.7953L112.106 28.6255V34.3288H107.757V13.4647H113.44Z" fill="black"/>
<path d="M140.637 22.865L145.03 13.4647H149.785L142.855 26.7627V34.3288H138.434V26.7627L131.504 13.4647H136.274L140.637 22.865Z" fill="black"/>
<path d="M157.382 27.0636H149.22V23.7248H157.382V27.0636Z" fill="black"/>
<path d="M124.922 59.8609H120.573L112.106 46.133V59.8609H107.757V38.9968H112.106L120.587 52.7534V38.9968H124.922V59.8609Z" fill="black"/>
<path d="M141.42 51.3347H133.07V59.8609H128.721V38.9968H142.464V42.4789H133.07V47.8669H141.42V51.3347Z" fill="black"/>
<path d="M161.557 52.911C161.393 55.156 160.552 56.9233 159.035 58.213C157.527 59.5027 155.536 60.1475 153.062 60.1475C150.355 60.1475 148.224 59.2495 146.668 57.4535C145.122 55.648 144.349 53.1737 144.349 50.0307V48.7554C144.349 46.7492 144.706 44.9819 145.422 43.4534C146.137 41.9249 147.156 40.7546 148.48 39.9426C149.814 39.121 151.361 38.7102 153.12 38.7102C155.555 38.7102 157.517 39.3551 159.006 40.6447C160.494 41.9344 161.354 43.7447 161.586 46.0757H157.237C157.131 44.7287 156.749 43.7543 156.092 43.1524C155.444 42.541 154.453 42.2353 153.12 42.2353C151.67 42.2353 150.583 42.7512 149.858 43.7829C149.143 44.8051 148.775 46.3957 148.756 48.5547V50.131C148.756 52.3856 149.099 54.0335 149.785 55.0748C150.481 56.1161 151.573 56.6367 153.062 56.6367C154.405 56.6367 155.405 56.3358 156.063 55.7339C156.73 55.1225 157.111 54.1815 157.208 52.911H161.557Z" fill="black"/>
</svg>
