<svg width="154" height="40" viewBox="0 0 154 40" fill="none" xmlns="http://www.w3.org/2000/svg">
<path d="M121.204 28.8207L126.53 34.9009H123.071L118.952 30.2147V34.9009H116.084V23.5633H118.952V27.6779L123.002 23.5633H126.393L121.204 28.8207ZM35.3963 26.6262C37.4898 26.6262 38.4458 25.6205 38.4458 24.1117C38.4458 22.6032 37.4898 21.5976 35.3963 21.5976H31.2542V26.6262H35.3963ZM35.4872 18.9004C39.083 18.9004 41.45 20.7516 41.45 24.1117C41.45 27.4721 39.083 29.3234 35.4872 29.3234H31.2542V34.9007H28.25V18.9004H35.4872V18.9004ZM48.2308 32.5234C49.9149 32.5234 51.4853 31.3121 51.4853 29.232C51.4853 27.152 49.9149 25.9404 48.2308 25.9404C46.5467 25.9404 44.9763 27.152 44.9763 29.232C44.9763 31.3121 46.5467 32.5234 48.2308 32.5234ZM48.2308 23.2432C51.3259 23.2432 54.3983 25.2549 54.3983 29.232C54.3983 33.2095 51.3259 35.2205 48.2308 35.2205C45.1357 35.2205 42.0633 33.2095 42.0633 29.232C42.0633 25.2549 45.1357 23.2432 48.2308 23.2432ZM61.7195 32.5235C59.9897 32.5235 58.7156 31.2665 58.7156 29.2319C58.7156 27.2205 60.0354 25.9405 61.7195 25.9405C62.7436 25.9405 63.6312 26.4205 64.3368 27.4949L66.7947 26.0777C65.9753 24.3175 64.2003 23.2434 61.7423 23.2434C58.5331 23.2434 55.8024 25.6207 55.8024 29.2319C55.8024 32.8437 58.3969 35.2207 61.7423 35.2207C64.1546 35.2207 65.7703 34.1237 66.9085 32.1808L64.5415 30.8779C63.8587 31.838 63.1305 32.5235 61.7195 32.5235ZM92.2519 29.9865C92.1153 31.7235 91.7734 32.1121 91.1818 32.1121C90.8872 32.1177 90.5935 32.0781 90.3108 31.9946L90.325 34.9283C90.325 34.9283 90.6815 35.0381 91.3415 35.0381C93.7766 35.0381 94.687 33.4608 94.9148 30.1007L95.188 26.1462H98.4193V34.878H101.287V23.5633H92.7297L92.2519 29.9865ZM86.963 27.7234C86.6898 26.3062 85.6204 25.4377 84.0272 25.4377C82.5253 25.4377 81.3871 26.4434 80.9774 27.7234H86.963ZM84.1182 23.2434C87.3499 23.2434 89.6259 25.5978 89.6259 28.912V29.9177H80.9321C81.114 31.655 82.3431 32.752 84.0272 32.752C85.552 32.752 86.1892 32.0894 86.8945 31.198L89.1706 32.3409C88.0327 34.2835 86.4623 35.2207 83.9816 35.2207C80.8411 35.2207 78.1782 32.8208 78.1782 29.2319C78.1782 25.6433 80.8411 23.2434 84.1182 23.2434V23.2434ZM111.677 27.7234C111.404 26.3062 110.334 25.4377 108.741 25.4377C107.239 25.4377 106.101 26.4434 105.691 27.7234H111.677ZM108.832 23.2434C112.064 23.2434 114.34 25.5978 114.34 28.912V29.9177H105.646C105.828 31.655 107.057 32.752 108.741 32.752C110.266 32.752 110.903 32.0894 111.609 31.198L113.885 32.3409C112.746 34.2835 111.176 35.2207 108.696 35.2207C105.555 35.2207 102.892 32.8208 102.892 29.2319C102.892 25.6433 105.555 23.2434 108.832 23.2434ZM67.8005 26.0776H71.1684V34.9007H74.0361V26.0776H77.4047V23.5634H67.8005L67.8005 26.0776ZM132.223 32.5235C133.907 32.5235 135.478 31.3122 135.478 29.2321C135.478 27.1521 133.907 25.9405 132.223 25.9405C130.539 25.9405 128.969 27.1521 128.969 29.2321C128.969 31.3122 130.539 32.5235 132.223 32.5235ZM132.223 23.2433C135.318 23.2433 138.391 25.2547 138.391 29.2321C138.391 33.2093 135.318 35.221 132.223 35.221C129.128 35.221 126.056 33.2093 126.056 29.2321C126.056 25.2547 129.128 23.2433 132.223 23.2433ZM149.801 23.5611L146.688 31.5014L143.576 23.5611H139.828V34.8781H142.554V27.7136L145.576 34.8781H147.802L150.823 27.7136V34.8781H153.549V23.5611L149.801 23.5611Z" fill="#101828"/>
<path d="M19.0596 39.7814H3.14889C1.99929 39.7814 1.32343 38.75 1.32343 37.8485C1.3231 37.5946 1.37273 37.3432 1.46947 37.1086C1.5662 36.8741 1.70814 36.661 1.88711 36.4817L8.8307 29.5078L19.0596 39.7814Z" fill="#FF4F12"/>
<path d="M3.15373 39.7817C1.9523 39.7817 0.450529 38.8166 0.450529 36.8985V15.4149C0.450529 12.5121 0.303493 10.4698 2.36731 8.39699L10.1122 0.617188L23.8469 14.4338L1.89195 36.4821C1.71298 36.6614 1.57104 36.8744 1.47431 37.109C1.37757 37.3435 1.32794 37.595 1.32827 37.8488C1.32827 38.7504 2.00413 39.7817 3.15373 39.7817Z" fill="#7700FF"/>
</svg>
