<svg width="280" height="296" viewBox="0 0 280 296" preserveAspectRatio="none" fill="none" xmlns="http://www.w3.org/2000/svg">
<path fill-rule="evenodd" clip-rule="evenodd" d="M120.569 10C120.569 4.47715 116.092 0 110.569 0H10C4.47715 0 0 4.47715 0 10V72V130V152V286C0 291.523 4.47715 296 10 296H57H66C71.5229 296 76 291.523 76 286V262C76 256.477 80.4772 252 86 252H270C275.523 252 280 247.523 280 242V70C280 64.4771 275.523 60 270 60H130.569C125.047 60 120.569 55.5228 120.569 50V10Z" fill="white"/>
</svg>
