<svg width="440" height="452" viewBox="0 0 440 452" preserveAspectRatio="none" fill="none" xmlns="http://www.w3.org/2000/svg">
<path fill-rule="evenodd" clip-rule="evenodd" d="M440 15C440 6.71573 433.284 0 425 0H314C305.716 0 299 6.71573 299 15V76V79V116C299 124.284 292.284 131 284 131H136C127.716 131 121 124.284 121 116V86C121 77.7157 114.284 71 106 71H15C6.71573 71 0 77.7157 0 86V143V201V223V379V437C0 445.284 6.71573 452 15 452H100C108.284 452 115 445.284 115 437V394C115 385.716 121.716 379 130 379H195C203.284 379 210 372.284 210 364V338C210 329.716 216.716 323 225 323H299H349H425C433.284 323 440 316.284 440 308V79V76V15Z" fill="white"/>
</svg>
