<svg width="984" height="547" viewBox="0 0 984 547" preserveAspectRatio="none" fill="none" xmlns="http://www.w3.org/2000/svg">
<path fill-rule="evenodd" clip-rule="evenodd" d="M984 33C984 14.7746 969.225 0 951 0H577C558.775 0 544 14.7746 544 33V113V116V277.5C544 288.822 534.822 298 523.5 298V298C512.178 298 503 288.822 503 277.5V235C503 216.775 488.225 202 470 202H264C245.775 202 231 187.225 231 169V140C231 121.775 216.225 107 198 107H33C14.7746 107 0 121.775 0 140V202V298V477V530V530C0 539.389 7.61116 547 17 547H470C488.225 547 503 532.225 503 514V510C503 491.775 517.775 477 536 477H539H566H586C604.225 477 619 462.225 619 444V430C619 411.775 633.775 397 652 397H951C969.225 397 984 382.225 984 364V116V113V33Z" fill="white"/>
</svg>
