<svg width="728" height="460" viewBox="0 0 728 460" preserveAspectRatio="none" fill="none" xmlns="http://www.w3.org/2000/svg">
<path fill-rule="evenodd" clip-rule="evenodd" d="M728 15C728 6.71573 721.284 0 713 0H389C380.716 0 374 6.71573 374 15V76V79V186C374 194.284 367.284 201 359 201H356C347.716 201 341 194.284 341 186V158C341 149.716 334.284 143 326 143H182C173.716 143 167 136.284 167 128V85C167 76.7157 160.284 70 152 70H15C6.71573 70 0 76.7157 0 85V143V201V387V451C0 455.971 4.02943 460 8.99999 460H326C334.284 460 341 453.284 341 445V402C341 393.716 347.716 387 356 387H418C426.284 387 433 380.284 433 372V338C433 329.716 439.716 323 448 323H713C721.284 323 728 316.284 728 308V79V76V15Z" fill="white"/>
</svg>
