<svg width="1320" height="612" viewBox="0 0 1320 612" preserveAspectRatio="none" fill="none" xmlns="http://www.w3.org/2000/svg">
<path fill-rule="evenodd" clip-rule="evenodd" d="M1320 33C1320 14.7746 1305.23 0 1287 0H642C623.775 0 609 14.7746 609 33V113V116V278.5C609 289.27 600.27 298 589.5 298C578.73 298 570 289.27 570 278.5V235C570 216.775 555.225 202 537 202H264C245.775 202 231 187.225 231 169V140C231 121.775 216.225 107 198 107H33C14.7746 107 0 121.775 0 140V202V298V579C0 597.225 14.7746 612 33 612H231H570H667.5C684.897 612 699 597.897 699 580.5C699 563.103 713.103 549 730.5 549H831C849.225 549 864 534.225 864 516V484C864 465.775 878.775 451 897 451H1287C1305.23 451 1320 436.225 1320 418V116V113V33Z" fill="white"/>
</svg>
